<svg width="44" height="60" viewBox="0 0 44 60" fill="none" xmlns="http://www.w3.org/2000/svg">
<path d="M21.9274 43.4504C21.9048 42.7705 21.0158 42.4412 20.5741 42.3615C22.5006 42.2996 26.2296 42.234 25.7334 42.4678C25.1132 42.7599 24.6621 43.2645 24.5775 43.6629C24.4929 44.0613 24.7185 45.6017 25.7898 46.2923C26.8611 46.9828 28.8065 47.5936 30.3007 47.6468C31.7949 47.6999 33.5993 48.3373 34.1631 48.6294C34.727 48.9216 36.5313 49.9574 36.7851 50.0371C36.9881 50.1008 37.9034 50.0105 38.3357 49.9574C37.9786 50.1699 37.0726 50.5948 36.3058 50.5948C35.5389 50.5948 34.3323 50.099 33.8248 49.8512C33.214 49.5502 31.8851 48.9482 31.4566 48.9482C31.0281 48.9482 30.0375 49.019 29.5959 49.0544C29.9718 49.3731 30.8251 50.0849 31.2311 50.3823C31.7385 50.7542 32.1614 51.9759 32.387 52.3211C32.6125 52.6664 33.0918 53.596 33.7402 54.1272C34.259 54.5521 34.727 54.7115 34.8961 54.738C34.7458 54.7646 34.3492 54.8018 33.9658 54.738C33.4865 54.6583 32.3306 53.9944 32.1614 53.835C31.9923 53.6757 30.9773 52.1618 30.7236 51.8165C30.4698 51.4713 29.3581 50.5782 29.173 50.4355C28.8628 50.1964 24.768 48.0186 24.803 48.3373C24.8707 48.9535 25.9214 51.0906 26.4382 52.0821C26.9363 52.693 27.9889 54.0475 28.2144 54.5787C28.4963 55.2426 28.6655 55.88 28.6373 56.305C28.6147 56.6449 28.4775 57.1018 28.4118 57.2877C27.9607 56.4112 27.019 54.5999 26.8611 54.3662C26.7033 54.1325 25.7804 53.2773 25.3387 52.8789C24.9722 53.9147 24.2448 56.1244 24.2674 56.6768C24.2899 57.2292 24.6339 58.3412 24.803 58.8281C24.4835 58.5891 23.8163 58.0579 23.7035 57.8454C23.5626 57.5798 23.3652 56.3847 23.2806 56.1191C23.213 55.9066 23.3652 55.0036 23.4498 54.5787C23.6471 54.0121 24.0249 52.7195 23.9573 52.0821C23.8896 51.4447 23.478 50.5063 23.2806 50.1167C23.1585 49.7449 22.9028 49.0491 22.8577 49.2403C22.8126 49.4315 22.3503 49.9928 22.1247 50.2495C21.636 50.8338 20.6192 52.0927 20.4613 52.4539C20.264 52.9054 20.2358 53.9147 20.2076 54.2068C20.1794 54.499 20.4613 55.8535 20.5741 56.3847C20.6643 56.8096 20.5365 57.5356 20.4613 57.8454C20.2734 58.1199 19.9144 58.6369 19.982 58.5094C20.0666 58.35 19.8129 57.0221 19.6437 56.6768C19.5084 56.4006 19.2678 55.7118 19.1644 55.402C19.0893 54.8797 18.9051 53.8509 18.7697 53.9147C18.6006 53.9944 17.5292 55.1098 17.5292 55.163C17.5292 55.2161 16.768 56.4112 16.6835 56.5175C16.6158 56.6025 16.0162 57.0663 15.7249 57.2877C15.8565 56.8185 16.1478 55.7791 16.2606 55.3754C16.3733 54.9717 17.1533 53.8262 17.5292 53.3038C17.9052 52.9851 18.7697 52.2096 19.2208 51.6572C19.6719 51.1047 20.2358 49.9043 20.4613 49.3731L20.5741 48.2045L19.3336 49.1606L16.9936 50.5948C16.3921 50.9932 15.099 51.9015 14.7381 52.3477C14.287 52.9054 12.8492 54.3396 12.4827 54.5787C12.1162 54.8177 10.34 54.7646 10.8757 54.6583C11.3042 54.5733 12.1256 53.7199 12.4827 53.3038C12.821 52.3743 13.7514 51.489 14.2025 50.9932C14.9637 50.1566 16.909 49.1398 16.5707 49.0544C15.5106 48.7868 13.6668 49.1606 12.68 49.4262C11.8061 49.8157 10.2273 50.5948 9.26869 50.5948C8.63716 50.5948 7.77446 50.223 7.35156 49.9574C8.16916 50.0636 9.38146 49.9574 10.1145 49.4262C12.0464 48.0263 12.8774 47.9456 13.6668 47.8061C14.569 47.6468 16.2042 47.6468 17.3037 47.4609C18.4032 47.2749 20.264 46.0532 20.5741 45.8408C20.8842 45.6283 21.9555 44.3003 21.9274 43.4504Z" fill="#4E3B1E"/>
<path d="M18.4508 23.0058C22.2011 21.4566 21.9745 20.2952 23.3985 18.1952C23.667 17.7991 24.0057 20.6765 22.2901 22.0699C18.3213 25.2935 15.6821 25.5521 14.7618 30.1294C14.4095 31.8813 14.4095 32.5723 14.5082 33.9939C14.6069 35.4155 15.9859 39.0097 20.8604 40.225C26.6421 41.6666 29.2739 37.3795 29.5622 36.2231C29.9557 34.645 30.3999 29.5966 25.7879 28.483C21.8747 27.5382 20.2898 29.9314 19.9371 31.3464C19.5489 32.903 19.8751 35.0011 22.0099 35.5334C24.1447 36.0657 25.1685 35.2373 25.5073 33.9939C25.8462 32.7505 25.1072 31.5903 24.1287 31.3464C23.2392 31.1246 22.483 31.3021 22.306 32.0787C22.1925 32.5768 22.5386 33.1561 22.997 33.2632C23.3453 33.3445 23.8425 33.1858 23.984 33.0513C24.2801 32.7697 23.3918 32.2761 23.3918 32.2761C23.3918 32.2761 24.7737 32.1774 24.5762 33.1645C24.4775 33.5593 23.984 34.3489 22.4701 33.9641C21.5847 33.739 21.2454 32.5705 21.4177 31.7826C21.5691 31.0899 22.3775 29.9017 24.3788 30.4007C25.5607 30.6954 26.8465 31.1903 27.0439 33.3719C26.9672 35.1951 25.6276 38.0885 21.7138 37.1127C17.8 36.1369 17.7258 32.637 18.1603 30.8942C18.9255 27.8254 20.9702 26.2648 25.5073 26.6498C32.0072 27.2014 32.5715 33.9939 31.697 36.7554C31.1095 39.4905 27.2907 44.3404 20.317 42.6017C11.5999 40.4283 11.3756 33.0663 12.2516 29.5528C13.1277 26.0392 15.4288 24.2541 18.4508 23.0058Z" fill="#4E3B1E"/>
<path d="M34.9209 17.3164C34.4537 17.2456 33.6328 17.2302 32.8125 17.2988C32.4053 17.3329 32.0074 17.3871 31.6621 17.4619C31.3106 17.5381 31.0383 17.6311 30.8662 17.7305C30.4858 17.9501 29.4901 18.3974 28.4307 18.8564C27.7703 19.1426 27.0723 19.4371 26.459 19.6943C27.7411 20.0494 29.3857 20.457 30.6748 20.457C32.4515 20.457 34.134 19.6568 34.7861 19.2793C35.0968 19.0994 35.6966 18.6489 36.2402 18.2246C36.4193 18.0849 36.5888 17.9499 36.7354 17.833C36.1842 17.621 35.4438 17.3957 34.9209 17.3164Z" fill="#467464" stroke="#424D22" stroke-width="0.766586"/>
<path d="M10.7559 17.3164C11.2231 17.2456 12.044 17.2302 12.8643 17.2988C13.2714 17.3329 13.6693 17.3871 14.0146 17.4619C14.3662 17.5381 14.6385 17.6311 14.8105 17.7305C15.191 17.9501 16.1867 18.3974 17.2461 18.8564C17.9065 19.1426 18.6044 19.4371 19.2178 19.6943C17.9357 20.0494 16.2911 20.457 15.002 20.457C13.2253 20.457 11.5428 19.6568 10.8906 19.2793C10.58 19.0994 9.98011 18.6489 9.43652 18.2246C9.25748 18.0849 9.08794 17.9499 8.94141 17.833C9.49255 17.621 10.233 17.3957 10.7559 17.3164Z" fill="#467464" stroke="#424D22" stroke-width="0.766586"/>
<path d="M30.0056 18.8308C29.5752 18.9538 27.8846 19.5378 27.0547 19.8452C27.5711 19.8452 28.5609 19.7632 28.9912 19.7223C29.6674 19.6578 30.8956 19.3516 31.4503 19.1382C32.2495 18.8308 33.5814 18.6259 34.3089 18.5235C34.2474 18.503 33.7729 18.4036 32.3724 18.462C30.897 18.5235 30.4577 18.7017 30.0056 18.8308Z" fill="#424D22"/>
<path d="M15.6712 18.8308C16.1015 18.9538 17.7921 19.5378 18.6221 19.8452C18.1057 19.8452 17.1159 19.7632 16.6856 19.7223C16.0093 19.6578 14.7811 19.3516 14.2265 19.1382C13.4273 18.8308 12.0953 18.6259 11.3678 18.5235C11.4293 18.503 11.9039 18.4036 13.3043 18.462C14.7798 18.5235 15.2191 18.7017 15.6712 18.8308Z" fill="#424D22"/>
<path d="M27.1239 12.1284C23.5708 15.2735 23.1524 18.1938 23.3873 19.2608C24.5464 19.6707 27.7391 19.7165 31.2374 16.6198C34.7358 13.5231 35.4765 10.2371 35.3878 8.8795C34.128 8.71975 30.6769 8.98326 27.1239 12.1284Z" fill="#F8B3B1" stroke="#B56362" stroke-width="0.860672"/>
<path d="M23.296 11.4933C21.3514 15.7872 22.1773 18.6224 22.8334 19.5032C24.0619 19.4142 26.9975 18.1794 28.9122 13.9515C30.8269 9.72367 30.144 6.42557 29.5014 5.22082C28.2844 5.57863 25.2407 7.19937 23.296 11.4933Z" fill="#F8B3B1" stroke="#B56362" stroke-width="0.860672"/>
<path d="M18.5256 12.1284C22.0786 15.2735 22.497 18.1938 22.2621 19.2608C21.103 19.6707 17.9103 19.7165 14.412 16.6198C10.9136 13.5231 10.173 10.2371 10.2616 8.8795C11.5214 8.71975 14.9725 8.98326 18.5256 12.1284Z" fill="#F8B3B1" stroke="#B56362" stroke-width="0.860672"/>
<path d="M22.3524 11.4933C24.297 15.7872 23.4711 18.6224 22.8151 19.5032C21.5866 19.4142 18.6509 18.1794 16.7362 13.9515C14.8215 9.72367 15.5044 6.42557 16.147 5.22082C17.364 5.57863 20.4078 7.19937 22.3524 11.4933Z" fill="#F8B3B1" stroke="#B56362" stroke-width="0.860672"/>
<path d="M19.7617 11.9741C19.7617 16.6816 21.6892 18.9448 22.6529 19.488C23.7384 18.9146 25.9094 16.6092 25.9094 11.9741C25.9094 7.33904 23.921 4.59493 22.8355 3.75C21.8718 4.56476 19.7617 7.26662 19.7617 11.9741Z" fill="#F8B3B1" stroke="#B56362" stroke-width="0.860672"/>
<path d="M22.8672 10.9423C22.8672 12.3932 22.652 17.3052 22.2217 19.5183C22.2217 19.5183 23.4389 19.5183 23.4205 19.4261C23.0209 17.4281 22.8672 9.12877 22.8672 10.9423Z" fill="#B3625F"/>
<path d="M22.3765 19.5447C22.5091 19.7742 22.1216 20.2952 22.0112 20.4315L23.1957 20.7276C23.2989 20.521 23.4918 20.0366 23.5874 19.7445C23.7167 19.3492 23.9999 19.2108 24.53 18.9126C24.2539 18.9899 23.7349 19.2108 23.1717 19.2108C22.8006 19.2108 22.0784 19.0562 21.7471 19.012C21.9238 19.0378 22.244 19.3151 22.3765 19.5447Z" fill="#4E3B1E"/>
</svg>
